HIERARCHY
ROOT Hips
{
 OFFSET 0.000000 0.000000 0.000000
 CHANNELS 6 Xposition Yposition Zposition Yrotation Xrotation Zrotation
 JOINT Chest
 {
  OFFSET 0.000000 9.585900 0.002600
  CHANNELS 3 Yrotation Xrotation Zrotation
  JOINT Chest2
  {
   OFFSET 0.000000 9.601200 -0.005300
   CHANNELS 3 Yrotation Xrotation Zrotation
   JOINT Chest3
   {
    OFFSET 0.000000 9.561800 0.000000
    CHANNELS 3 Yrotation Xrotation Zrotation
    JOINT Chest4
    {
     OFFSET 0.000000 9.552100 0.000000
     CHANNELS 3 Yrotation Xrotation Zrotation
     JOINT Neck
     {
      OFFSET 0.000000 14.453000 0.000000
      CHANNELS 3 Yrotation Xrotation Zrotation
      JOINT Head
      {
       OFFSET 0.000000 8.936500 -0.011300
       CHANNELS 3 Yrotation Xrotation Zrotation
       End Site
       {
        OFFSET 0.000000 17.073600 -0.006000
       }
      }
     }
     JOINT RightCollar
     {
      OFFSET -2.921100 9.558500 0.000000
      CHANNELS 3 Yrotation Xrotation Zrotation
      JOINT RightShoulder
      {
       OFFSET -13.519700 0.000000 0.000000
       CHANNELS 3 Yrotation Xrotation Zrotation
       JOINT RightElbow
       {
        OFFSET 0.000000 -29.696600 0.000000
        CHANNELS 3 Yrotation Xrotation Zrotation
        JOINT RightWrist
        {
         OFFSET 0.000000 -24.004700 0.000000
         CHANNELS 3 Yrotation Xrotation Zrotation
         End Site
         {
          OFFSET 0.000000 -17.728500 0.000000
         }
        }
       }
      }
     }
     JOINT LeftCollar
     {
      OFFSET 2.921100 9.558500 0.000000
      CHANNELS 3 Yrotation Xrotation Zrotation
      JOINT LeftShoulder
      {
       OFFSET 13.519700 0.000000 0.000000
       CHANNELS 3 Yrotation Xrotation Zrotation
       JOINT LeftElbow
       {
        OFFSET 0.000000 -29.696600 0.000000
        CHANNELS 3 Yrotation Xrotation Zrotation
        JOINT LeftWrist
        {
         OFFSET 0.000000 -24.004700 0.000000
         CHANNELS 3 Yrotation Xrotation Zrotation
         End Site
         {
          OFFSET 0.000000 -17.728500 0.000000
         }
        }
       }
      }
     }
    }
   }
  }
 }
 JOINT RightHip
 {
  OFFSET -7.771700 -0.012900 -0.001300
  CHANNELS 3 Yrotation Xrotation Zrotation
  JOINT RightKnee
  {
   OFFSET 0.000000 -40.869800 0.001200
   CHANNELS 3 Yrotation Xrotation Zrotation
   JOINT RightAnkle
   {
    OFFSET 0.000000 -39.717900 0.002100
    CHANNELS 3 Yrotation Xrotation Zrotation
    JOINT RightToe
    {
     OFFSET 0.000000 -4.965400 11.033500
     CHANNELS 3 Yrotation Xrotation Zrotation
     End Site
     {
      OFFSET 0.000000 -1.423100 5.872300
     }
    }
   }
  }
 }
 JOINT LeftHip
 {
  OFFSET 7.771700 -0.012900 -0.001300
  CHANNELS 3 Yrotation Xrotation Zrotation
  JOINT LeftKnee
  {
   OFFSET 0.000000 -40.869800 0.001200
   CHANNELS 3 Yrotation Xrotation Zrotation
   JOINT LeftAnkle
   {
    OFFSET 0.000000 -39.717900 0.002100
    CHANNELS 3 Yrotation Xrotation Zrotation
    JOINT LeftToe
    {
     OFFSET 0.000000 -4.965400 11.033500
     CHANNELS 3 Yrotation Xrotation Zrotation
     End Site
     {
      OFFSET 0.000000 -1.423100 5.872300
     }
    }
   }
  }
 }
}
MOTION
Frames: 13
Frame Time: 0.008333
-94.352228 58.222983 93.760225 169.433924 -30.358557 -1.702253 3.970832 21.155801 3.614939 0.441966 2.881694 0.423833 0.764494 4.693369 0.659187 3.348400 18.036927 2.915811 -5.400030 12.832884 -0.762839 -9.817239 -11.828578 0.589868 2.330943 -0.844408 -0.883509 4.139981 -28.635308 -8.649167 145.349096 -43.579087 -142.726099 15.865947 -15.524527 -54.405087 -9.861991 -1.884017 -2.488028 22.071984 -21.260675 -3.613603 -148.390045 -32.477279 156.574988 -12.619128 -17.255777 36.698423 7.277510 -45.066835 0.594048 -7.491991 66.809226 -5.803730 8.066409 23.813815 3.146564 -0.237744 -16.057883 1.648039 -7.556997 -41.867898 3.708725 36.045754 63.481704 40.657036 -13.705502 5.219765 -7.883075 0.053412 -0.177998 -0.129100
-94.349543 58.225313 93.760668 169.411808 -30.360162 -1.694961 3.941437 21.154204 3.653187 0.474171 2.885790 0.385921 0.758172 4.692092 0.669413 3.343673 18.034386 2.941203 -5.432735 12.828197 -0.777342 -9.875440 -11.835354 0.581519 2.336055 -0.832205 -0.915595 4.020509 -28.578135 -8.610419 145.542246 -43.454350 -142.943703 16.053683 -15.644477 -54.620611 -9.865725 -1.903673 -2.512993 21.784944 -21.334854 -3.506761 -148.365411 -32.491231 156.476843 -12.799141 -17.142606 36.748754 7.290980 -45.066473 0.599190 -7.500961 66.807996 -5.808615 8.066532 23.820080 3.145652 -0.245563 -16.062160 1.646844 -7.561605 -41.867626 3.716685 36.043842 63.486485 40.658406 -13.698331 5.250727 -7.856497 0.060610 -0.172636 -0.122633
-94.346006 58.225638 93.764975 169.407976 -30.338257 -1.700955 3.920387 21.131498 3.675609 0.484297 2.886143 0.374432 0.747813 4.691576 0.687624 3.343844 18.030078 2.957892 -5.468062 12.825398 -0.793018 -10.005840 -11.849175 0.600598 2.340312 -0.818217 -0.945155 3.915951 -28.523453 -8.581716 145.736600 -43.337625 -143.166551 16.336760 -15.748891 -54.960850 -9.870131 -1.947629 -2.498645 21.503553 -21.379725 -3.425634 -148.369449 -32.535420 156.400689 -12.985253 -17.020217 36.816185 7.287295 -45.092430 0.603990 -7.518132 66.803120 -5.815589 8.077293 23.825445 3.142639 -0.248757 -16.058997 1.643329 -7.575231 -41.888763 3.731340 36.017755 63.493167 40.645300 -13.721725 5.285486 -7.856230 0.095164 -0.180649 -0.101073
-94.341910 58.228688 93.764580 169.352031 -30.351362 -1.672425 3.944030 21.143257 3.691814 0.485348 2.886550 0.377682 0.740346 4.691320 0.698553 3.342114 18.030924 2.962715 -5.491112 12.819621 -0.817133 -10.096955 -11.861679 0.609265 2.341279 -0.805066 -0.949312 3.848957 -28.471909 -8.582858 145.918445 -43.202767 -143.386478 16.682983 -15.830651 -55.373376 -9.861058 -1.974717 -2.513940 21.184465 -21.467951 -3.319808 -148.411432 -32.621681 156.337968 -13.108456 -16.924586 36.820285 7.336847 -45.084358 0.596981 -7.494378 66.805662 -5.780754 8.068085 23.849647 3.136302 -0.243874 -16.079782 1.639241 -7.552666 -41.873618 3.733659 36.024024 63.489124 40.647684 -13.679242 5.290060 -7.841732 0.068072 -0.146714 -0.083738
-94.338747 58.230732 93.765643 169.295073 -30.353208 -1.632530 3.966190 21.144983 3.696771 0.478930 2.885532 0.379003 0.745959 4.692574 0.702996 3.330485 18.024979 3.026499 -5.505294 12.818030 -0.915105 -10.180659 -11.868039 0.631473 2.355761 -0.787646 -1.007406 3.783764 -28.415157 -8.581704 146.092061 -43.032850 -143.610532 17.006451 -15.927540 -55.745064 -9.842677 -1.994061 -2.600017 20.826525 -21.584310 -3.202271 -148.525883 -32.743771 156.285971 -13.101529 -16.894083 36.623737 7.411502 -45.088465 0.575778 -7.511929 66.807388 -5.790603 8.067160 23.859577 3.143039 -0.239288 -16.086301 1.633283 -7.547848 -41.871848 3.729272 36.093126 63.475665 40.687979 -13.660618 5.333394 -7.787551 0.048953 -0.153568 -0.099603
-94.331294 58.233308 93.766602 169.267862 -30.359959 -1.625838 3.981999 21.150953 3.713599 0.471465 2.885659 0.393754 0.747319 4.691937 0.699393 3.330974 18.021833 3.052205 -5.542768 12.814546 -0.932545 -10.189236 -11.873536 0.602616 2.351615 -0.777330 -1.013519 3.722634 -28.356574 -8.581185 146.276877 -42.824353 -143.849770 17.254383 -16.070506 -55.996030 -9.847391 -2.022139 -2.610964 20.449718 -21.693236 -3.108003 -148.749354 -32.882950 156.254148 -12.935535 -16.929272 36.093662 7.431221 -45.084162 0.588559 -7.498595 66.808064 -5.774119 8.057972 23.864332 3.148435 -0.235559 -16.090154 1.623961 -7.538107 -41.866310 3.737569 36.071156 63.481731 40.678326 -13.666522 5.395167 -7.711204 0.063466 -0.181250 -0.147761
-94.323841 58.234948 93.768942 169.247543 -30.355528 -1.618080 3.988039 21.146287 3.724228 0.446640 2.883458 0.440614 0.773167 4.694986 0.646293 3.331069 18.017926 3.084254 -5.591034 12.809512 -0.902961 -10.178091 -11.882090 0.535686 2.344956 -0.767539 -1.006586 3.651456 -28.299032 -8.578326 146.486163 -42.573345 -144.107206 17.443854 -16.255966 -56.130039 -9.860591 -2.045047 -2.612076 20.053108 -21.822135 -3.019806 -149.086145 -33.032705 156.246104 -12.670412 -16.980243 35.197493 7.454713 -45.091210 0.596715 -7.511134 66.807905 -5.785612 8.054077 23.867450 3.154368 -0.232827 -16.092557 1.618889 -7.555875 -41.871931 3.753589 36.046108 63.488657 40.650746 -13.645799 5.447399 -7.671867 0.065785 -0.207993 -0.179882
-94.317123 58.237174 93.769810 169.220041 -30.358255 -1.596179 3.995820 21.149967 3.740914 0.440264 2.879895 0.441210 0.777278 4.697373 0.652079 3.328650 18.020403 3.058367 -5.620387 12.806993 -0.865672 -10.229026 -11.883733 0.505389 2.342297 -0.761431 -0.972948 3.560136 -28.242419 -8.570724 146.708433 -42.267847 -144.366809 17.611095 -16.450980 -56.182555 -9.867981 -2.053435 -2.609738 19.638824 -21.983488 -2.918492 -149.512260 -33.208477 156.273310 -12.482931 -16.962230 34.136525 7.493789 -45.090456 0.591157 -7.522208 66.810633 -5.795192 8.043354 23.866667 3.158069 -0.225990 -16.092684 1.612977 -7.585718 -41.870676 3.758128 36.076735 63.489841 40.659325 -13.609079 5.500788 -7.618329 0.056582 -0.207819 -0.184515
-94.308583 58.239710 93.770387 169.194746 -30.363429 -1.583339 3.991982 21.151988 3.757525 0.454368 2.881799 0.430665 0.752427 4.688582 0.707126 3.332449 18.028563 3.038962 -5.644833 12.806966 -0.894815 -10.287977 -11.880092 0.495936 2.347645 -0.754552 -0.930270 3.480556 -28.176334 -8.623565 146.906356 -41.894830 -144.594276 17.764448 -16.610922 -56.176371 -9.883760 -2.086056 -2.633898 19.264840 -22.127181 -2.825286 -149.921703 -33.381373 156.313484 -12.446727 -16.830453 33.243112 7.521168 -45.084335 0.595475 -7.531947 66.812392 -5.801669 8.046383 23.845921 3.161579 -0.229046 -16.076292 1.609149 -7.571602 -41.866032 3.758727 36.030436 63.505602 40.621356 -13.584477 5.545304 -7.570647 0.062260 -0.200085 -0.177017
-94.301719 58.241985 93.770937 169.169404 -30.364691 -1.560538 3.984234 21.145970 3.780426 0.469846 2.888243 0.403728 0.742201 4.681993 0.726275 3.332284 18.031343 3.055672 -5.671668 12.802077 -0.913699 -10.340720 -11.874253 0.478641 2.346900 -0.745888 -0.945246 3.363348 -28.119625 -8.615990 147.049681 -41.456667 -144.770221 17.886893 -16.722357 -56.114683 -9.899726 -2.128810 -2.659538 18.894167 -22.275659 -2.721927 -150.134079 -33.480120 156.272631 -12.438656 -16.633599 32.686320 7.553409 -45.081194 0.587721 -7.552876 66.813854 -5.820450 8.043854 23.827245 3.160033 -0.223756 -16.060827 1.605186 -7.575686 -41.864427 3.756103 36.025450 63.514624 40.603210 -13.549932 5.571844 -7.543395 0.051104 -0.193837 -0.170160
-94.294750 58.244285 93.771561 169.142548 -30.364299 -1.539924 3.992340 21.142796 3.781883 0.459413 2.883495 0.419493 0.744842 4.680133 0.732284 3.333004 18.026789 3.068414 -5.697413 12.803934 -0.931088 -10.384013 -11.868073 0.455039 2.347614 -0.727136 -0.983298 3.225225 -28.073171 -8.591785 147.144075 -40.970249 -144.908069 17.967042 -16.808556 -55.985786 -9.911789 -2.164740 -2.684845 18.479315 -22.445002 -2.619789 -150.102714 -33.492252 156.117766 -12.387439 -16.469714 32.447065 7.572894 -45.080042 0.587700 -7.580104 66.813951 -5.846113 8.043453 23.815158 3.152806 -0.215838 -16.049915 1.600636 -7.572239 -41.865201 3.758685 36.016277 63.523602 40.582755 -13.529075 5.596964 -7.517014 0.047625 -0.176416 -0.146552
-94.288784 58.247626 93.770368 169.099948 -30.374420 -1.507520 4.009070 21.146061 3.795489 0.458692 2.882230 0.421771 0.737977 4.678865 0.738407 3.333905 18.004822 3.139640 -5.726128 12.825073 -1.042253 -10.505786 -11.866633 0.480587 2.348492 -0.691594 -1.045775 3.111003 -28.026574 -8.624287 147.213592 -40.451984 -145.031163 18.023743 -16.902303 -55.795721 -9.926229 -2.195598 -2.763084 18.022524 -22.633637 -2.522500 -149.997333 -33.476557 155.947436 -12.351320 -16.420575 32.419467 7.595050 -45.068368 0.586886 -7.627392 66.810717 -5.890510 8.060952 23.812151 3.138235 -0.220357 -16.044831 1.601230 -7.581482 -41.854492 3.760491 36.076908 63.514318 40.607907 -13.519833 5.670549 -7.399681 0.038890 -0.195366 -0.198316
-94.282731 58.250364 93.770638 169.066459 -30.374324 -1.487102 4.006868 21.140871 3.810335 0.459579 2.881622 0.424430 0.750411 4.680949 0.726031 3.335149 18.002369 3.148651 -5.744392 12.821855 -1.034692 -10.545938 -11.853503 0.448527 2.329829 -0.699908 -0.972571 3.053358 -27.967379 -8.731815 147.272308 -39.908736 -145.151642 18.086110 -17.019430 -55.588825 -9.941917 -2.223645 -2.759151 17.535418 -22.852370 -2.411163 -149.992258 -33.475092 155.853969 -12.368270 -16.498284 32.479486 7.611820 -45.068342 0.592234 -7.641129 66.809581 -5.905344 8.062930 23.809317 3.130943 -0.228548 -16.040370 1.601715 -7.576557 -41.854658 3.761573 36.075431 63.515347 40.604009 -13.507173 5.715667 -7.357487 0.040509 -0.195608 -0.198579
